# xmcd
#
# Track frame offsets:
#	150
#	14699
#	29345
#	44982
#	60927
#	77432
#	93808
#	111232
#	128349
#	144841
#	162588
#	174941
#	191326
#	207479
#	221212
#	239142
#	254881
#	272844
#	289259
#
# Disc length: 4051 seconds
#
# Revision: 1
# Processed by: cddbd v1.5.2PL0 Copyright (c) Steve Scherf et al.
# Submitted via: audiograbber 1.83.01
#
DISCID=1f0fd113
DTITLE=Various Artist - Hott Country 209
DYEAR=2013
DGENRE=Country
TTITLE0=Alee - Crazy
TTITLE1=Wes Mack Feat Carly McKillip - Duet
TTITLE2=Aaron Pritchett - Suntan City
TTITLE3=Toby Keith - Drinks After Dark
TTITLE4=Taylor Swift - Red
TTITLE5=Eli Young Band - Drunk Last Night
TTITLE6=Jason Aldean - Night Train
TTITLE7=Love And Theft - If You Ever Get Lonely
TTITLE8=Miranda Lambert - All Kinds Of Kinds
TTITLE9=Tim McGraw - Southern Girl
TTITLE10=Kelly Clarkson - Tie It Up
TTITLE11=David Nail - Whatever She's Got
TTITLE12=Cassadee Pope - Wasting All These Tears
TTITLE13=Jana Kramer - I Hope It Rains
TTITLE14=Clayton Bellamy - Days Aren't Long Enough
TTITLE15=Ladies Of the Canyon - You ANd All Your Famous Friends
TTITLE16=Blake Shelton - Mine Would Be You
TTITLE17=Jess Moskaluke - Everything Falls
TTITLE18=Wyatt - Roll The Windows Down
EXTD=July 2013
EXTT0=
EXTT1=
EXTT2=
EXTT3=
EXTT4=
EXTT5=
EXTT6=
EXTT7=
EXTT8=
EXTT9=
EXTT10=
EXTT11=
EXTT12=
EXTT13=
EXTT14=
EXTT15=
EXTT16=
EXTT17=
EXTT18=
PLAYORDER=
